<svg width="70" height="70" viewBox="0 0 70 70" fill="none" xmlns="http://www.w3.org/2000/svg">
<g id="Capa_1" clip-path="url(#clip0_3_34)">
<path id="Vector" d="M36.4 70H33.6C32.9752 69.9282 32.3487 69.8495 31.724 69.7847C24.5157 69.0375 18.0792 66.4177 12.5492 61.7207C5.89925 56.0735 1.84975 48.9247 0.518 40.2797C0.2835 38.7625 0.16975 37.2277 0 35.7C0 35.2327 0 34.7672 0 34.3C0.05075 33.9885 0.133 33.6788 0.147 33.3655C0.371 27.9528 1.7535 22.8428 4.44325 18.1528C10.1027 8.28975 18.5447 2.3415 29.8095 0.50575C31.2375 0.273 32.6865 0.1645 34.125 0C34.7077 0 35.2922 0 35.875 0C36.1287 0.049 36.379 0.133 36.6345 0.1435C43.6047 0.4585 49.938 2.64775 55.5397 6.78475C63.2747 12.4967 67.9577 20.125 69.489 29.645C69.7007 30.9575 69.832 32.2805 70 33.6V36.4C69.9492 36.6205 69.8617 36.8375 69.8512 37.0598C69.6552 40.9657 68.8555 44.751 67.2788 48.3192C62.0445 60.1597 53.0582 67.2753 40.2675 69.4995C38.9883 69.7218 37.6897 69.8355 36.4 70ZM35.154 59.5227C35.112 59.5175 35.0717 59.5123 35.0297 59.507C34.9632 59.8098 34.881 60.1107 34.832 60.417C34.7112 61.194 34.6272 61.978 34.475 62.748C34.4417 62.9142 34.2072 63.1137 34.0322 63.1522C33.9237 63.1767 33.6508 62.9475 33.628 62.8022C33.4793 61.9237 33.383 61.0365 33.2535 60.046C33.726 60.0705 34.0847 60.088 34.7147 60.1195C33.978 59.6803 33.4547 59.3687 32.9157 59.0467C32.8895 59.192 32.809 59.416 32.816 59.6365C32.8405 60.536 32.9263 61.4373 32.9123 62.335C32.907 62.6098 32.655 62.8828 32.515 63.1558C32.3295 62.8898 31.99 62.6272 31.983 62.3577C31.9462 60.9332 32.011 59.5052 32.0075 58.079C32.0057 57.2932 31.9392 56.5093 31.9025 55.7235C31.794 55.7288 31.6855 55.7357 31.577 55.741C31.5595 56.014 31.5262 56.2887 31.5245 56.5617C31.5105 58.485 31.4965 60.4082 31.4983 62.3332C31.4983 63.0227 31.2182 63.2852 30.5952 63.1015V55.496C28.9257 55.0847 28.945 55.0865 29.1445 53.0775C29.2162 52.3582 29.3248 51.583 29.141 50.9092C28.6318 49.0437 28.5967 47.1835 28.7577 45.276C28.8732 43.911 28.3027 42.6702 27.7322 41.4172C27.3122 42.0052 26.9657 42.5775 26.7417 43.1935C25.7407 45.9533 24.7747 48.727 23.7965 51.4937C23.758 51.604 23.7142 51.7125 23.6635 51.8157C22.9845 53.1895 23.2207 54.4862 24.3792 55.496C25.032 56.0647 25.095 56.8015 25.0233 57.5645C25.0058 57.7447 24.7152 57.8987 24.549 58.065C24.3985 57.8952 24.1885 57.7482 24.115 57.5505C24.038 57.3457 24.1325 57.0798 24.0748 56.861C24.031 56.693 23.8665 56.5565 23.7545 56.4077C23.604 56.553 23.3275 56.6948 23.324 56.8435C23.2925 58.4745 23.2995 60.1073 23.317 61.7383C23.317 61.866 23.4955 61.992 23.5917 62.1197C23.7195 61.992 23.926 61.8817 23.961 61.7312C24.0467 61.3655 24.0047 60.9682 24.1132 60.613C24.1692 60.4327 24.423 60.2368 24.6155 60.2018C24.7275 60.1808 25.0093 60.4555 25.018 60.6095C25.0443 61.0697 25.0022 61.5387 24.9375 61.999C24.8307 62.7672 24.3932 63.2275 23.5882 63.196C22.7885 63.1645 22.3528 62.6972 22.3458 61.9062C22.3265 60.0267 22.3405 58.1455 22.3405 56.2327C21.5005 56.4095 20.769 56.5775 20.0305 56.7123C19.8012 56.7543 19.439 56.7945 19.3427 56.6738C19.2097 56.504 19.1975 56.1575 19.2727 55.9352C19.3235 55.7865 19.6105 55.6727 19.81 55.6342C20.1355 55.573 20.475 55.587 20.8075 55.5695C20.916 55.524 21.0245 55.4785 21.133 55.4347C19.7453 54.8695 20.2825 53.9123 20.356 53.0933C20.426 52.325 20.643 51.562 20.8635 50.8165C21.392 49.0385 21.8592 47.2325 22.547 45.5175C23.0055 44.3765 23.275 43.2565 23.2575 42.0473C23.2137 39.0058 23.261 35.945 22.3632 32.998C21.938 31.605 21.7665 30.03 20.4715 29.0728C18.7408 27.79 18.3785 26.1327 19.313 24.059C19.453 23.7475 19.537 23.394 19.565 23.0545C19.7103 21.2293 19.754 19.3935 19.9797 17.5805C20.139 16.3065 20.573 15.54 21.91 15.47C22.316 14.6948 21.6423 13.692 22.5348 12.9903C22.701 13.7498 22.764 14.5075 22.743 15.2635C22.7255 15.8655 22.953 16.1052 23.5672 16.0545C23.5112 14.4235 23.0125 12.8205 23.618 11.1388C23.9365 11.3715 24.2112 11.634 24.3442 11.9578C25.2262 14.1138 26.054 16.2907 26.9483 18.4415C27.4698 19.698 27.4837 19.6455 26.3725 20.4452C26.0802 20.6552 25.9525 21.161 25.8738 21.5565C25.8563 21.6475 26.3603 21.8295 26.6123 21.987C27.3613 22.456 28.1383 22.8882 28.84 23.4202C29.421 23.8612 29.9093 24.423 30.3608 24.857C31.5385 23.7982 32.6235 22.8235 33.7085 21.847C33.7907 21.882 33.8747 21.917 33.957 21.952C33.334 22.7465 33.915 23.1577 34.426 23.3292C35.1067 23.5567 35.0367 22.8392 35.1837 22.4437C35.3762 21.9275 35.5267 21.392 35.7542 20.8932C36.001 20.356 36.3755 20.1023 37.0248 20.3718C37.3048 20.4873 37.7352 20.461 38.01 20.3245C38.8517 19.9027 39.5377 20.0637 40.2832 20.5887C40.6525 20.8495 41.2072 20.979 41.6657 20.9492C42.385 20.9037 42.6387 20.3857 42.5652 19.656C40.5265 20.4837 40.3112 20.3962 39.284 18.3732C39.2315 18.27 39.1615 18.1738 39.1072 18.0705C38.577 17.0625 38.7012 16.1227 39.452 15.435C40.096 14.8435 40.8152 14.847 41.8127 15.449C41.874 15.3912 41.9702 15.3423 41.9912 15.2705C42.0192 15.176 41.9913 15.0657 41.979 14.9625C41.8145 13.7217 42.1103 13.3805 43.3248 13.2877C44.0283 13.2352 44.7265 13.0935 45.5472 12.9763C45.339 12.824 45.1972 12.747 45.0887 12.6385C44.3922 11.9403 43.4962 11.34 43.0692 10.5035C42.6265 9.63375 42.5705 8.6625 43.2547 7.58625C44.8052 5.14675 46.8948 4.82125 48.7988 6.9405C48.881 6.75675 49.0105 6.36825 49.056 6.377C49.6755 6.50825 50.2828 6.69375 51.0808 6.9195C51.0895 6.9125 51.303 6.741 51.5322 6.559C47.5125 3.5665 36.5523 1.06225 32.8685 2.25925C33.4163 3.54375 33.4355 3.5735 32.186 4.3575C30.0895 5.67525 27.9685 6.9545 25.8527 8.2425C25.6305 8.37725 25.389 8.49275 25.1422 8.568C25.025 8.60475 24.7992 8.568 24.7537 8.491C24.682 8.36675 24.654 8.1375 24.724 8.02375C24.8885 7.75425 25.1055 7.5075 25.3312 7.2835C26.5282 6.09 27.7392 4.9105 28.938 3.717C29.295 3.36175 29.6275 2.9855 29.9723 2.618C29.9338 2.5515 29.8935 2.48325 29.855 2.41675C28.9503 2.604 28.0507 2.8175 27.139 2.9715C26.5597 3.0695 26.222 3.3565 25.9945 3.8955C25.5097 5.04875 24.9847 6.188 24.444 7.31675C24.2865 7.6475 24.0205 7.92575 23.8035 8.22675L23.4657 8.04125C24.1237 6.573 24.7817 5.10475 25.4782 3.55425C23.6985 3.81325 23.597 3.94625 23.4868 5.5125C23.408 6.615 23.2715 7.71575 23.1333 8.813C23.1018 9.06675 22.9565 9.3065 22.8637 9.5515C22.7465 9.53575 22.6292 9.51825 22.512 9.5025C22.631 7.8295 22.75 6.1565 22.8865 4.23675C21.1312 5.11175 19.607 5.87125 17.857 6.74275C19.3112 7.42525 20.5223 7.994 21.7333 8.56275C21.693 8.659 21.6527 8.75525 21.6125 8.8515C21.217 8.80075 20.8145 8.778 20.426 8.694C19.3445 8.4595 18.2787 8.13925 17.1867 7.98C16.7282 7.9135 16.1175 8.02375 15.757 8.29325C5.7225 15.8025 1.19175 25.9 2.226 38.3215C2.93125 46.7687 6.72525 53.8492 12.9955 59.5717C13.7953 60.3015 14.6685 60.9525 15.5067 61.6403C15.6257 61.593 15.7465 61.5458 15.8655 61.4985C15.8655 59.9393 15.8532 58.3782 15.8742 56.819C15.8795 56.462 15.9933 55.8005 16.0773 55.797C16.7475 55.7725 17.5315 55.6798 18.0635 55.986C18.613 56.3028 18.753 57.0657 18.284 57.9477C17.9638 57.5172 17.7432 57.1882 17.486 56.889C17.3687 56.7525 17.1885 56.63 17.0187 56.602C16.947 56.5897 16.7562 56.8313 16.751 56.9643C16.7212 57.5488 16.7387 58.1368 16.7387 58.6548C17.6015 59.0223 17.5332 57.3633 18.4782 58.156C18.4135 58.4273 18.305 58.7283 18.277 59.0363C18.2473 59.353 18.277 59.6785 18.3102 59.9988C18.41 60.984 18.536 61.9675 18.6095 62.9562C18.6182 63.0682 18.3575 63.1995 18.221 63.3237C28.448 69.8128 42.833 69.2422 51.7913 63.2957C51.6443 62.5712 51.4535 61.908 51.401 61.236C51.3782 60.9438 51.6005 60.4013 51.7877 60.3663C52.4072 60.2473 52.3005 60.8125 52.3635 61.194C52.43 61.6035 52.507 62.013 52.5788 62.4225C52.7135 62.4138 52.8465 62.405 52.9812 62.3962C53.0092 62.062 53.1335 61.6963 53.0425 61.3988C52.8483 60.7635 52.577 60.144 52.2725 59.5508C51.6828 58.4045 51.072 57.2775 51.6512 55.9282H50.7798C50.7798 58.0842 50.813 60.1702 50.7605 62.2562C50.743 62.9282 50.2985 63.3692 49.5478 63.3762C48.8198 63.3815 48.3 63.0122 48.2772 62.3227C48.2125 60.4082 48.2335 58.4903 48.2633 56.5758C48.2703 56.1348 48.5292 55.699 48.5327 55.2597C48.5782 50.771 48.601 46.2805 48.6133 41.79C48.615 41.146 48.881 40.9097 49.5127 40.9342C50.386 40.9692 51.2628 40.957 52.136 40.9412C52.9375 40.9272 53.6637 41.3507 53.788 42C54.054 43.379 54.1555 44.8158 54.089 46.2175C54.0592 46.8615 53.4747 47.481 53.123 48.146C53.9752 48.804 54.166 48.9807 54.1992 50.0552C54.2587 51.954 54.5703 53.914 53.4923 55.3245C53.7233 56.2538 53.9367 56.9275 54.0347 57.6187C54.0645 57.8322 53.7757 58.0895 53.6322 58.3275C53.473 58.107 53.2595 57.9075 53.1685 57.6625C53.0355 57.3037 52.99 56.9117 52.906 56.5355C52.7888 56.5652 52.6697 56.595 52.5525 56.6265C52.1727 57.5837 52.92 58.2925 53.2508 59.094C53.599 59.9392 53.9438 60.7845 54.3498 61.775C63.1383 55.0042 67.8055 46.1807 67.9752 35.0718C68.0452 30.5007 67.1195 26.089 65.2802 21.896C63.455 17.7363 60.9367 14.0613 57.4332 10.864C57.4542 12.383 57.0675 13.503 55.9842 14.294C55.342 14.763 54.684 15.2092 54.0365 15.6695C53.0792 16.352 51.9592 16.0195 51.772 14.994C51.6145 14.1347 50.7412 13.6535 49.924 14.0612C49.1417 14.4515 48.4155 14.9537 47.8853 15.2722C47.7208 15.8865 47.705 16.3537 47.4845 16.688C46.8755 17.6172 46.179 18.4887 45.5262 19.3882C45.444 19.502 45.36 19.6665 45.3792 19.7907C45.5892 21.14 44.5935 21.602 43.6835 22.1322C42.1645 23.0177 41.139 22.6537 40.6175 21.3377C40.1888 21.2327 39.7722 21.2065 39.4327 21.0333C38.6085 20.6115 37.7912 20.6727 37.1332 21.217C36.4507 21.7805 35.889 22.5033 35.3272 23.1998C34.9545 23.6618 34.615 24.0187 33.9447 23.8507C33.7575 23.8035 33.509 24.0012 33.2902 24.087C33.4477 24.2847 33.5685 24.598 33.768 24.6593C34.4015 24.8553 34.7235 25.242 34.86 25.879C35.4182 28.469 36.0185 31.0503 36.5645 33.642C36.7762 34.6448 36.351 35.3028 35.3623 35.5373C34.958 35.6335 34.433 35.6772 34.1005 35.4952C33.7645 35.3115 33.5965 34.818 33.3218 34.4137V35.4147C33.243 35.4462 33.1642 35.4777 33.0855 35.5075C32.942 35.2765 32.7372 35.0612 32.669 34.811C32.487 34.139 32.4117 33.4337 32.1912 32.7757C32.1142 32.5482 31.7292 32.27 31.5052 32.2858C31.2655 32.3033 30.9312 32.5955 30.8385 32.844C30.443 33.9062 31.045 34.832 31.3827 35.77C32.41 38.6172 32.7162 41.5362 32.4257 44.5375C32.2472 46.3837 32.1072 48.2335 31.9637 50.0815C31.9532 50.2092 32.0618 50.344 32.0968 50.4805C32.2228 50.9547 32.4713 51.4412 32.4363 51.9067C32.347 53.102 33.0662 54.0767 34.2072 54.2587C34.1635 51.7195 34.1145 49.1627 34.0795 46.6042C34.0655 45.5892 34.0148 44.5655 34.104 43.5575C34.251 41.874 34.8512 40.1853 37.5445 40.5598C38.3162 40.6665 38.9217 41.0112 39.0985 41.7585C39.3295 42.7402 39.438 43.7517 39.5535 44.7562C39.6358 45.4772 39.228 45.7118 38.542 45.7153C37.8158 45.7188 37.7632 45.2988 37.7527 44.7493C37.7387 44.0843 37.7247 43.4105 37.5952 42.763C37.5515 42.5442 37.1595 42.252 36.9267 42.252C36.6835 42.252 36.3825 42.5233 36.218 42.756C36.0815 42.9485 36.071 43.2547 36.0692 43.512C36.0552 46.6585 36.0482 49.8033 36.05 52.9498C36.05 53.4188 36.0622 53.9735 36.7027 53.984C37.3502 53.9945 37.583 53.5185 37.6162 52.927C37.6547 52.2287 37.7528 51.5305 37.7248 50.8357C37.695 50.099 38.0572 49.9748 38.6802 49.9538C39.3802 49.9293 39.627 50.2128 39.5675 50.8778C39.4958 51.6898 39.459 52.5035 39.3925 53.3155C39.3173 54.2307 38.9462 54.9692 38.1902 55.5467C37.9277 55.748 37.702 56.1715 37.6932 56.4988C37.6407 58.4518 37.66 60.4047 37.6495 62.3595C37.6477 62.7375 37.6897 63.147 37.1 63.1435C36.4875 63.14 36.5855 62.7042 36.5907 62.3437C36.6187 60.6252 36.6713 58.905 36.6905 57.1865C36.6958 56.7577 36.61 56.3272 36.5662 55.8967C36.4595 55.902 36.3545 55.9055 36.2478 55.9107C36.2075 56.469 36.1375 57.0255 36.1305 57.5837C36.1095 59.2147 36.1305 60.8475 36.0868 62.4768C36.0798 62.7183 35.8225 62.9527 35.6807 63.189C35.5057 62.9492 35.196 62.7165 35.1802 62.4663C35.1207 61.4898 35.1557 60.508 35.1557 59.528L35.154 59.5227ZM50.4735 51.555H50.4683C50.4683 52.136 50.4822 52.7152 50.463 53.2962C50.4472 53.7722 50.6048 54.187 51.1123 54.0925C51.506 54.019 52.15 53.6935 52.1623 53.452C52.2305 52.1885 52.1815 50.9092 52.0467 49.6492C52.0222 49.42 51.429 49.1453 51.0738 49.105C50.9023 49.0858 50.5435 49.5407 50.498 49.819C50.407 50.3842 50.47 50.9758 50.47 51.555H50.4735ZM50.47 44.4797C50.4542 44.4797 50.4403 44.4815 50.4245 44.4832C50.4735 45.1482 50.498 45.815 50.5837 46.4748C50.6152 46.7128 50.848 47.1362 50.904 47.1222C51.2977 47.0295 51.975 46.8755 51.996 46.6795C52.122 45.542 52.15 44.3835 52.0607 43.2442C52.0432 43.0255 51.3642 42.7857 50.9635 42.714C50.8497 42.693 50.5732 43.2162 50.4875 43.5225C50.4035 43.8182 50.47 44.1577 50.47 44.4762V44.4797ZM32.4012 3.416C31.9462 1.995 31.6523 1.91275 30.716 2.85775C29.694 3.89025 28.658 4.9105 27.629 5.93775C27.4085 6.15825 27.1985 6.38575 26.985 6.6115L27.1197 6.748C28.8855 5.63325 30.653 4.52025 32.4012 3.416ZM49.4515 56.5022C48.9737 57.2162 49.0385 61.8135 49.5355 62.3508C50.008 61.6455 49.9415 56.9782 49.4515 56.5022ZM24.199 13.3578C24.1325 13.384 24.0677 13.4085 24.0012 13.4347C24.4125 14.9572 23.5865 16.9698 25.8843 17.808C25.3085 16.289 24.7537 14.8243 24.199 13.3578ZM16.9802 59.542C16.4045 61.3865 16.667 62.5572 17.7362 62.902C17.2287 61.8555 17.8867 60.6515 16.9802 59.542ZM34.0007 58.8192C34.0567 58.821 34.1128 58.8228 34.167 58.8245C34.3035 57.9145 34.4383 57.0045 34.5905 55.9913C34.1968 56.0158 33.9325 56.0333 33.565 56.056C33.7207 57.043 33.8607 57.9302 34.0007 58.8192ZM31.2235 30.2838C31.2987 30.177 31.3722 30.072 31.4475 29.9652C31.0432 29.6712 30.6407 29.3772 30.2365 29.085C30.506 29.561 30.1822 30.688 31.2235 30.2838ZM32.235 24.6225C32.235 24.549 32.235 24.4772 32.2332 24.4037C31.997 24.4912 31.689 24.5157 31.5402 24.682C31.3215 24.9252 31.2165 25.27 31.0905 25.5167C31.4878 25.2052 31.8622 24.9147 32.235 24.6225Z" fill="white"/>
<path id="Vector_2" d="M32.4012 3.41601C30.653 4.51851 28.8855 5.63326 27.1197 6.74801L26.985 6.61151C27.2002 6.38751 27.4102 6.15826 27.629 5.93776C28.6562 4.91051 29.6922 3.89026 30.716 2.85776C31.6522 1.91276 31.9462 1.99326 32.4012 3.41601Z" fill="white"/>
<path id="Vector_3" d="M24.199 13.3578C24.7537 14.8243 25.3102 16.289 25.8842 17.808C23.5865 16.9698 24.4125 14.9573 24.0012 13.4348C24.0677 13.4085 24.1325 13.384 24.199 13.3578Z" fill="white"/>
<path id="Vector_4" d="M16.982 59.542C17.8885 60.6515 17.2287 61.8555 17.738 62.902C16.6705 62.5572 16.4062 61.3865 16.982 59.542Z" fill="white"/>
<path id="Vector_5" d="M34.0025 58.8192C33.8625 57.9302 33.7225 57.0412 33.5668 56.056C33.936 56.0332 34.1985 56.0157 34.5923 55.9912C34.44 57.0062 34.3053 57.9162 34.1688 58.8245C34.1128 58.8227 34.0568 58.821 34.0025 58.8192Z" fill="white"/>
<path id="Vector_6" d="M30.24 29.085C30.6442 29.379 31.0467 29.673 31.451 29.9652C31.3757 30.072 31.3022 30.177 31.227 30.2837" fill="white"/>
<path id="Vector_7" d="M43.246 55.9265C43.5505 55.881 43.8043 55.8425 44.1263 55.7935C44.1263 58.107 44.135 60.403 44.1088 62.6973C44.107 62.8635 43.8113 63.1855 43.7483 63.1628C43.4788 63.0683 43.127 62.9248 43.022 62.699C42.7683 62.153 42.6335 61.551 42.2398 60.9683C42.2398 61.397 42.3045 61.8398 42.2188 62.2528C42.1488 62.5905 41.9423 63.1278 41.7235 63.1663C41.0463 63.287 41.1373 62.657 41.1408 62.2633C41.153 60.606 41.2195 58.9488 41.244 57.2915C41.251 56.826 41.1793 56.3605 41.16 56.1085C40.2115 56.371 39.3943 56.6195 38.563 56.7998C38.4668 56.8208 38.1535 56.441 38.1815 56.2923C38.2288 56.0455 38.4475 55.6675 38.6365 55.6413C39.2315 55.5573 39.8458 55.6098 40.4758 55.6098C40.74 53.9123 40.9675 52.2778 41.2528 50.6538C41.6535 48.3665 42.1015 46.0863 42.5145 43.8008C42.6423 43.092 42.6703 42.3605 42.8505 41.6675C42.9153 41.4208 43.2775 41.118 43.5383 41.0795C45.1798 40.838 45.3355 41.0603 45.5613 42.6843C45.9095 45.2095 46.3925 47.7173 46.7915 50.2355C47.0925 52.129 47.3865 54.0243 47.5965 55.9283C47.628 56.2118 47.187 56.5495 46.9648 56.861C46.8633 56.819 46.7618 56.7788 46.6603 56.7368C46.6603 58.4798 46.6603 60.221 46.6603 61.964C46.6603 62.167 46.7373 62.405 46.6568 62.5678C46.5395 62.8058 46.312 62.9913 46.1318 63.1978C45.962 62.9808 45.6488 62.7673 45.6435 62.5468C45.6033 60.8878 45.6225 59.227 45.6225 57.568C45.6225 57.078 45.7363 56.5233 44.9383 56.539C44.8368 56.5408 44.6478 56.308 44.6478 56.1855C44.6478 56.0105 44.7458 55.7883 44.8788 55.6745C45.0153 55.5555 45.2428 55.5433 45.4983 55.4628C45.4405 55.181 45.3863 54.9325 45.3373 54.6823C44.9873 52.9585 44.9873 52.9498 43.267 53.1143C43.0833 53.1318 42.805 53.312 42.763 53.4695C42.343 55.0008 42.2223 56.5285 43.078 58.1385C43.1393 57.316 43.1918 56.6265 43.2443 55.9213L43.246 55.9265ZM43.0378 51.373C43.6065 51.373 44.0125 51.4133 44.4028 51.3538C44.5638 51.3293 44.828 51.0773 44.814 50.9548C44.6338 49.3623 44.4133 47.775 44.2033 46.186C44.1053 46.1843 44.0073 46.1825 43.9093 46.1808C43.6275 47.8643 43.344 49.5478 43.0378 51.3748V51.373Z" fill="white"/>
<path id="Vector_8" d="M29.5347 59.1973C30.24 60.263 30.0807 61.404 29.7815 62.538C29.596 63.2433 28.9625 63.175 28.4165 63.1943C27.0637 63.2398 27.0567 63.2363 27.0532 61.9115C27.0497 60.137 27.0725 58.3608 27.055 56.5863C27.048 55.9055 27.258 55.5293 28.007 55.608C28.6422 55.6763 29.449 55.377 29.7622 56.203C30.1437 57.211 30.1542 58.2435 29.5347 59.1973ZM27.888 61.0173C28.1155 61.4688 28.308 61.8503 28.4987 62.2318C28.6352 61.8363 28.8767 61.4425 28.8767 61.047C28.8767 60.6498 28.6317 60.2543 28.4935 59.8588C28.308 60.214 28.1225 60.5693 27.888 61.0173ZM28.0997 58.814C28.8802 58.4483 29.155 56.9853 28.686 56.679C28.5775 56.6073 28.133 56.7805 28.126 56.8645C28.077 57.477 28.0997 58.093 28.0997 58.814Z" fill="white"/>
<path id="Vector_9" d="M24.8815 9.67576C25.578 9.78076 26.2815 9.84551 26.9675 9.99601C29.2968 10.5088 31.6295 11.0145 33.9395 11.6095C34.468 11.746 35.273 12.1993 35.3045 12.5615C35.3605 13.216 34.951 13.9213 34.6728 14.5775C34.6378 14.6598 34.1968 14.6458 33.9903 14.5618C33.3445 14.2993 32.7233 13.9773 32.088 13.6833C30.0545 12.7453 28.014 11.8213 25.991 10.8623C25.536 10.647 25.1388 10.3128 24.7153 10.0328L24.8815 9.67401V9.67576ZM34.1478 13.9388C34.8898 12.6805 34.8495 12.5825 33.607 12.2745C33.3533 12.2115 33.0978 12.1555 32.8423 12.096C31.5718 11.7985 30.3013 11.4993 29.0308 11.2018C29.022 11.2438 29.0133 11.2858 29.0045 11.326C30.7055 12.1905 32.4065 13.0533 34.1478 13.9388Z" fill="white"/>
<path id="Vector_10" d="M22.1305 10.6645C21.9817 10.8535 21.8645 11.0862 21.6772 11.2227C19.5212 12.8065 17.8237 14.8417 16.1087 16.8595C15.3457 17.759 15.1952 17.7502 14.5075 16.7825C14.322 16.5217 14.1102 16.2785 13.944 16.0055C13.6255 15.4822 13.65 14.9607 14.203 14.6405C16.5917 13.2562 18.9945 11.8982 21.4025 10.5455C21.5582 10.458 21.784 10.4965 21.9782 10.4772C22.029 10.5385 22.0797 10.6015 22.1305 10.6627V10.6645ZM18.4135 13.1022C18.375 13.0602 18.3347 13.0182 18.2962 12.9762C17.3215 13.545 16.338 14.1015 15.3737 14.6877C14.2712 15.3597 14.2782 15.694 15.4105 16.5515C16.4097 15.4035 17.4125 14.2537 18.4135 13.1022Z" fill="white"/>
<path id="Vector_11" d="M25.5727 63.07C25.557 62.7742 25.5237 62.4627 25.5237 62.1512C25.529 60.2297 25.5412 58.3065 25.5517 56.385C25.5535 55.986 25.5867 55.5327 26.124 55.6552C26.3287 55.7025 26.5842 56.119 26.5877 56.371C26.6157 58.3502 26.572 60.3295 26.5877 62.3087C26.593 63.0052 26.348 63.2817 25.571 63.0717L25.5727 63.07Z" fill="white"/>
<path id="Vector_12" d="M39.0653 57.645C39.137 57.9723 39.2053 58.275 39.2823 58.6215C39.4538 58.6635 39.7723 58.6618 39.8125 58.7668C39.9228 59.0485 39.9613 59.6453 39.9455 59.6488C38.885 59.8395 39.2438 60.6813 39.1755 61.3043C39.1038 61.9623 39.326 62.3525 40.0925 62.2895C40.257 62.2755 40.446 62.5415 40.6228 62.6798C40.446 62.853 40.2745 63.0315 40.0908 63.196C40.0575 63.2258 39.9788 63.203 39.921 63.2065C38.1308 63.3203 38.1238 63.3203 38.115 61.5423C38.1098 60.5273 38.1465 59.5105 38.136 58.4955C38.1308 57.9303 38.3268 57.6065 39.067 57.6468L39.0653 57.645Z" fill="white"/>
<path id="Vector_13" d="M20.279 58.6337C20.4662 58.6722 20.6517 58.6722 20.7935 58.751C20.9457 58.835 21.1592 58.989 21.1627 59.1185C21.168 59.3162 21.0647 59.5647 20.923 59.71C20.7252 59.9165 20.272 60.0215 20.244 60.2157C20.1617 60.781 20.1792 61.3812 20.2877 61.943C20.3175 62.097 20.8145 62.1442 21.077 62.2772C21.2975 62.3892 21.49 62.5572 21.6947 62.699C21.4725 62.867 21.2642 63.1575 21.0262 63.182C19.1835 63.3762 19.1572 63.3342 19.1852 61.516C19.201 60.4975 19.1957 59.4807 19.2132 58.4622C19.2272 57.7097 19.2377 57.7115 20.118 57.6957C20.1687 57.9967 20.2212 58.303 20.2772 58.6302L20.279 58.6337Z" fill="white"/>
<path id="Vector_14" d="M36.33 17.5683C35.917 17.465 35.4533 17.4475 35.0963 17.2428C33.1065 16.1 31.1448 14.9083 29.1708 13.7393C28.6458 13.4278 28.1015 13.1478 27.587 12.824C27.3385 12.6665 27.132 12.4408 26.908 12.2448C26.9465 12.1573 26.9868 12.0715 27.0253 11.984C27.3245 12.0558 27.6588 12.0645 27.916 12.2098C29.029 12.838 30.1158 13.5118 31.22 14.1558C32.725 15.0343 34.237 15.9005 35.742 16.779C35.9923 16.9243 36.218 17.1133 36.4543 17.2813C36.414 17.3775 36.372 17.472 36.3318 17.5683H36.33Z" fill="white"/>
<path id="Vector_15" d="M16.2277 20.6867C16.3607 20.321 16.436 19.922 16.6355 19.5965C18.0827 17.2165 19.5545 14.8487 21.0192 12.4792C21.0647 12.4057 21.1067 12.3112 21.175 12.2727C21.4252 12.1292 21.6842 12.0067 21.9415 11.8755C21.875 12.1502 21.8715 12.4635 21.7332 12.6945C20.2422 15.1497 18.7302 17.5927 17.2165 20.034C17.0257 20.342 16.7877 20.622 16.5725 20.916C16.457 20.8407 16.3432 20.7655 16.2277 20.6902V20.6867Z" fill="white"/>
<path id="Vector_16" d="M37.128 10.227C36.12 10.731 27.5817 9.64601 27.0602 8.98626C27.6815 8.62576 36.596 9.68451 37.128 10.227Z" fill="white"/>
<path id="Vector_17" d="M29.736 21.9362C28.196 19.124 27.0113 16.1367 25.4555 13.3332C25.5798 13.2475 25.704 13.16 25.8265 13.0742C26.0453 13.314 26.334 13.5205 26.4723 13.8005C27.664 16.1892 28.8348 18.5867 29.9933 20.9912C30.1053 21.2257 30.0895 21.5232 30.1315 21.791C30.0003 21.84 29.8673 21.889 29.736 21.9362Z" fill="white"/>
<path id="Vector_18" d="M10.3337 15.0063C10.7065 13.8583 17.0887 10.8763 18.3977 11.0915C18.3277 11.2473 18.3015 11.466 18.1982 11.5133C15.6292 12.6683 13.0515 13.8058 10.3355 15.008L10.3337 15.0063Z" fill="white"/>
<path id="Vector_19" d="M36.2652 3.85525C35.8417 4.83875 29.7657 7.6895 28.798 7.35875C29.0727 6.86 35.6947 3.75375 36.2652 3.85525Z" fill="white"/>
<path id="Vector_20" d="M27.9702 14.126C29.8217 16.0073 31.717 17.8483 33.5125 20.0935C32.2892 19.964 27.8232 15.0833 27.9702 14.126Z" fill="white"/>
<path id="Vector_21" d="M31.0677 8.25299C31.4912 7.69824 37.072 6.82849 38.0922 7.10674C37.8087 7.79274 32.5307 8.68174 31.0677 8.25299Z" fill="white"/>
<path id="Vector_22" d="M19.6385 9.99424C17.9025 10.332 16.1613 10.549 14.2048 10.4912C14.9433 9.63549 18.963 9.30124 19.6385 9.99424Z" fill="white"/>
<path id="Vector_23" d="M34.1478 13.9388C32.4065 13.0533 30.7055 12.1905 29.0045 11.326C29.0133 11.284 29.022 11.242 29.0308 11.2018C30.3013 11.4993 31.5718 11.7985 32.8423 12.096C33.096 12.1555 33.3515 12.2115 33.607 12.2745C34.8513 12.5808 34.8898 12.6805 34.1478 13.9388Z" fill="white"/>
<path id="Vector_24" d="M18.4135 13.1023C17.4108 14.252 16.4098 15.4035 15.4105 16.5515C14.28 15.694 14.2713 15.3598 15.3738 14.6878C16.338 14.0998 17.3215 13.545 18.2963 12.9763C18.3348 13.0183 18.375 13.0603 18.4135 13.1023Z" fill="white"/>
</g>
<defs>
<clipPath id="clip0_3_34">
<rect width="70" height="70" fill="white"/>
</clipPath>
</defs>
</svg>
